G04 #@! TF.GenerationSoftware,KiCad,Pcbnew,(5.1.4-0-10_14)*
G04 #@! TF.CreationDate,2022-08-18T21:45:17+09:00*
G04 #@! TF.ProjectId,NX13,4e583133-2e6b-4696-9361-645f70636258,rev?*
G04 #@! TF.SameCoordinates,Original*
G04 #@! TF.FileFunction,Copper,L1,Top*
G04 #@! TF.FilePolarity,Positive*
%FSLAX46Y46*%
G04 Gerber Fmt 4.6, Leading zero omitted, Abs format (unit mm)*
G04 Created by KiCad (PCBNEW (5.1.4-0-10_14)) date 2022-08-18 21:45:17*
%MOMM*%
%LPD*%
G04 APERTURE LIST*
%ADD10O,1.700000X1.700000*%
%ADD11R,1.700000X1.700000*%
%ADD12O,1.700000X2.000000*%
%ADD13C,0.100000*%
%ADD14C,1.700000*%
%ADD15C,0.250000*%
%ADD16C,0.254000*%
G04 APERTURE END LIST*
D10*
X162560000Y-120650000D03*
X162560000Y-118110000D03*
D11*
X162560000Y-115570000D03*
D10*
X160020000Y-120650000D03*
X160020000Y-118110000D03*
D11*
X160020000Y-115570000D03*
D10*
X157480000Y-120650000D03*
X157480000Y-118110000D03*
D11*
X157480000Y-115570000D03*
D10*
X154940000Y-120650000D03*
X154940000Y-118110000D03*
D11*
X154940000Y-115570000D03*
D10*
X152400000Y-120650000D03*
X152400000Y-118110000D03*
D11*
X152400000Y-115570000D03*
D10*
X149860000Y-120650000D03*
X149860000Y-118110000D03*
D11*
X149860000Y-115570000D03*
D10*
X163830000Y-107950000D03*
X163830000Y-105410000D03*
X163830000Y-102870000D03*
D11*
X163830000Y-100330000D03*
D10*
X148590000Y-110490000D03*
X148590000Y-107950000D03*
X148590000Y-105410000D03*
X148590000Y-102870000D03*
D11*
X148590000Y-100330000D03*
D12*
X156250000Y-102870000D03*
D13*
G36*
X159374504Y-101871204D02*
G01*
X159398773Y-101874804D01*
X159422571Y-101880765D01*
X159445671Y-101889030D01*
X159467849Y-101899520D01*
X159488893Y-101912133D01*
X159508598Y-101926747D01*
X159526777Y-101943223D01*
X159543253Y-101961402D01*
X159557867Y-101981107D01*
X159570480Y-102002151D01*
X159580970Y-102024329D01*
X159589235Y-102047429D01*
X159595196Y-102071227D01*
X159598796Y-102095496D01*
X159600000Y-102120000D01*
X159600000Y-103620000D01*
X159598796Y-103644504D01*
X159595196Y-103668773D01*
X159589235Y-103692571D01*
X159580970Y-103715671D01*
X159570480Y-103737849D01*
X159557867Y-103758893D01*
X159543253Y-103778598D01*
X159526777Y-103796777D01*
X159508598Y-103813253D01*
X159488893Y-103827867D01*
X159467849Y-103840480D01*
X159445671Y-103850970D01*
X159422571Y-103859235D01*
X159398773Y-103865196D01*
X159374504Y-103868796D01*
X159350000Y-103870000D01*
X158150000Y-103870000D01*
X158125496Y-103868796D01*
X158101227Y-103865196D01*
X158077429Y-103859235D01*
X158054329Y-103850970D01*
X158032151Y-103840480D01*
X158011107Y-103827867D01*
X157991402Y-103813253D01*
X157973223Y-103796777D01*
X157956747Y-103778598D01*
X157942133Y-103758893D01*
X157929520Y-103737849D01*
X157919030Y-103715671D01*
X157910765Y-103692571D01*
X157904804Y-103668773D01*
X157901204Y-103644504D01*
X157900000Y-103620000D01*
X157900000Y-102120000D01*
X157901204Y-102095496D01*
X157904804Y-102071227D01*
X157910765Y-102047429D01*
X157919030Y-102024329D01*
X157929520Y-102002151D01*
X157942133Y-101981107D01*
X157956747Y-101961402D01*
X157973223Y-101943223D01*
X157991402Y-101926747D01*
X158011107Y-101912133D01*
X158032151Y-101899520D01*
X158054329Y-101889030D01*
X158077429Y-101880765D01*
X158101227Y-101874804D01*
X158125496Y-101871204D01*
X158150000Y-101870000D01*
X159350000Y-101870000D01*
X159374504Y-101871204D01*
X159374504Y-101871204D01*
G37*
D14*
X158750000Y-102870000D03*
D15*
X148590000Y-100330000D02*
X152400000Y-104140000D01*
X157480000Y-115570000D02*
X156630001Y-114720001D01*
X156630001Y-114720001D02*
X153670000Y-111760000D01*
X153670000Y-111760000D02*
X153670000Y-105410000D01*
X153670000Y-105410000D02*
X152400000Y-104140000D01*
X151765000Y-106045000D02*
X148590000Y-102870000D01*
X153035000Y-107315000D02*
X151765000Y-106045000D01*
X153035000Y-113665000D02*
X153035000Y-107315000D01*
X154940000Y-115570000D02*
X153035000Y-113665000D01*
X148590000Y-105410000D02*
X151130000Y-107950000D01*
X152400000Y-109220000D02*
X151130000Y-107950000D01*
X152400000Y-115570000D02*
X152400000Y-109220000D01*
X148590000Y-107950000D02*
X150495000Y-109855000D01*
X150709999Y-114720001D02*
X150709999Y-110069999D01*
X149860000Y-115570000D02*
X150709999Y-114720001D01*
X150709999Y-110069999D02*
X150495000Y-109855000D01*
X162560000Y-109220000D02*
X162560000Y-115570000D01*
X163830000Y-107950000D02*
X162560000Y-109220000D01*
X160020000Y-109220000D02*
X160020000Y-115570000D01*
X163830000Y-105410000D02*
X160020000Y-109220000D01*
D16*
G36*
X164365000Y-121185000D02*
G01*
X163942107Y-121185000D01*
X163956825Y-121154099D01*
X164001476Y-121006890D01*
X163880155Y-120777000D01*
X162687000Y-120777000D01*
X162687000Y-120797000D01*
X162433000Y-120797000D01*
X162433000Y-120777000D01*
X160147000Y-120777000D01*
X160147000Y-120797000D01*
X159893000Y-120797000D01*
X159893000Y-120777000D01*
X157607000Y-120777000D01*
X157607000Y-120797000D01*
X157353000Y-120797000D01*
X157353000Y-120777000D01*
X155067000Y-120777000D01*
X155067000Y-120797000D01*
X154813000Y-120797000D01*
X154813000Y-120777000D01*
X152527000Y-120777000D01*
X152527000Y-120797000D01*
X152273000Y-120797000D01*
X152273000Y-120777000D01*
X149987000Y-120777000D01*
X149987000Y-120797000D01*
X149733000Y-120797000D01*
X149733000Y-120777000D01*
X148539845Y-120777000D01*
X148418524Y-121006890D01*
X148463175Y-121154099D01*
X148477893Y-121185000D01*
X148055000Y-121185000D01*
X148055000Y-111879530D01*
X148298889Y-111953513D01*
X148517050Y-111975000D01*
X148662950Y-111975000D01*
X148881111Y-111953513D01*
X149161034Y-111868599D01*
X149419014Y-111730706D01*
X149645134Y-111545134D01*
X149830706Y-111319014D01*
X149950000Y-111095831D01*
X149949999Y-114081928D01*
X149010000Y-114081928D01*
X148885518Y-114094188D01*
X148765820Y-114130498D01*
X148655506Y-114189463D01*
X148558815Y-114268815D01*
X148479463Y-114365506D01*
X148420498Y-114475820D01*
X148384188Y-114595518D01*
X148371928Y-114720000D01*
X148371928Y-116420000D01*
X148384188Y-116544482D01*
X148420498Y-116664180D01*
X148479463Y-116774494D01*
X148558815Y-116871185D01*
X148655506Y-116950537D01*
X148765820Y-117009502D01*
X148834687Y-117030393D01*
X148804866Y-117054866D01*
X148619294Y-117280986D01*
X148481401Y-117538966D01*
X148396487Y-117818889D01*
X148367815Y-118110000D01*
X148396487Y-118401111D01*
X148481401Y-118681034D01*
X148619294Y-118939014D01*
X148804866Y-119165134D01*
X149030986Y-119350706D01*
X149095523Y-119385201D01*
X148978645Y-119454822D01*
X148762412Y-119649731D01*
X148588359Y-119883080D01*
X148463175Y-120145901D01*
X148418524Y-120293110D01*
X148539845Y-120523000D01*
X149733000Y-120523000D01*
X149733000Y-120503000D01*
X149987000Y-120503000D01*
X149987000Y-120523000D01*
X152273000Y-120523000D01*
X152273000Y-120503000D01*
X152527000Y-120503000D01*
X152527000Y-120523000D01*
X154813000Y-120523000D01*
X154813000Y-120503000D01*
X155067000Y-120503000D01*
X155067000Y-120523000D01*
X157353000Y-120523000D01*
X157353000Y-120503000D01*
X157607000Y-120503000D01*
X157607000Y-120523000D01*
X159893000Y-120523000D01*
X159893000Y-120503000D01*
X160147000Y-120503000D01*
X160147000Y-120523000D01*
X162433000Y-120523000D01*
X162433000Y-120503000D01*
X162687000Y-120503000D01*
X162687000Y-120523000D01*
X163880155Y-120523000D01*
X164001476Y-120293110D01*
X163956825Y-120145901D01*
X163831641Y-119883080D01*
X163657588Y-119649731D01*
X163441355Y-119454822D01*
X163324477Y-119385201D01*
X163389014Y-119350706D01*
X163615134Y-119165134D01*
X163800706Y-118939014D01*
X163938599Y-118681034D01*
X164023513Y-118401111D01*
X164052185Y-118110000D01*
X164023513Y-117818889D01*
X163938599Y-117538966D01*
X163800706Y-117280986D01*
X163615134Y-117054866D01*
X163585313Y-117030393D01*
X163654180Y-117009502D01*
X163764494Y-116950537D01*
X163861185Y-116871185D01*
X163940537Y-116774494D01*
X163999502Y-116664180D01*
X164035812Y-116544482D01*
X164048072Y-116420000D01*
X164048072Y-114720000D01*
X164035812Y-114595518D01*
X163999502Y-114475820D01*
X163940537Y-114365506D01*
X163861185Y-114268815D01*
X163764494Y-114189463D01*
X163654180Y-114130498D01*
X163534482Y-114094188D01*
X163410000Y-114081928D01*
X163320000Y-114081928D01*
X163320000Y-109534801D01*
X163464004Y-109390797D01*
X163538889Y-109413513D01*
X163757050Y-109435000D01*
X163902950Y-109435000D01*
X164121111Y-109413513D01*
X164365001Y-109339530D01*
X164365000Y-121185000D01*
X164365000Y-121185000D01*
G37*
X164365000Y-121185000D02*
X163942107Y-121185000D01*
X163956825Y-121154099D01*
X164001476Y-121006890D01*
X163880155Y-120777000D01*
X162687000Y-120777000D01*
X162687000Y-120797000D01*
X162433000Y-120797000D01*
X162433000Y-120777000D01*
X160147000Y-120777000D01*
X160147000Y-120797000D01*
X159893000Y-120797000D01*
X159893000Y-120777000D01*
X157607000Y-120777000D01*
X157607000Y-120797000D01*
X157353000Y-120797000D01*
X157353000Y-120777000D01*
X155067000Y-120777000D01*
X155067000Y-120797000D01*
X154813000Y-120797000D01*
X154813000Y-120777000D01*
X152527000Y-120777000D01*
X152527000Y-120797000D01*
X152273000Y-120797000D01*
X152273000Y-120777000D01*
X149987000Y-120777000D01*
X149987000Y-120797000D01*
X149733000Y-120797000D01*
X149733000Y-120777000D01*
X148539845Y-120777000D01*
X148418524Y-121006890D01*
X148463175Y-121154099D01*
X148477893Y-121185000D01*
X148055000Y-121185000D01*
X148055000Y-111879530D01*
X148298889Y-111953513D01*
X148517050Y-111975000D01*
X148662950Y-111975000D01*
X148881111Y-111953513D01*
X149161034Y-111868599D01*
X149419014Y-111730706D01*
X149645134Y-111545134D01*
X149830706Y-111319014D01*
X149950000Y-111095831D01*
X149949999Y-114081928D01*
X149010000Y-114081928D01*
X148885518Y-114094188D01*
X148765820Y-114130498D01*
X148655506Y-114189463D01*
X148558815Y-114268815D01*
X148479463Y-114365506D01*
X148420498Y-114475820D01*
X148384188Y-114595518D01*
X148371928Y-114720000D01*
X148371928Y-116420000D01*
X148384188Y-116544482D01*
X148420498Y-116664180D01*
X148479463Y-116774494D01*
X148558815Y-116871185D01*
X148655506Y-116950537D01*
X148765820Y-117009502D01*
X148834687Y-117030393D01*
X148804866Y-117054866D01*
X148619294Y-117280986D01*
X148481401Y-117538966D01*
X148396487Y-117818889D01*
X148367815Y-118110000D01*
X148396487Y-118401111D01*
X148481401Y-118681034D01*
X148619294Y-118939014D01*
X148804866Y-119165134D01*
X149030986Y-119350706D01*
X149095523Y-119385201D01*
X148978645Y-119454822D01*
X148762412Y-119649731D01*
X148588359Y-119883080D01*
X148463175Y-120145901D01*
X148418524Y-120293110D01*
X148539845Y-120523000D01*
X149733000Y-120523000D01*
X149733000Y-120503000D01*
X149987000Y-120503000D01*
X149987000Y-120523000D01*
X152273000Y-120523000D01*
X152273000Y-120503000D01*
X152527000Y-120503000D01*
X152527000Y-120523000D01*
X154813000Y-120523000D01*
X154813000Y-120503000D01*
X155067000Y-120503000D01*
X155067000Y-120523000D01*
X157353000Y-120523000D01*
X157353000Y-120503000D01*
X157607000Y-120503000D01*
X157607000Y-120523000D01*
X159893000Y-120523000D01*
X159893000Y-120503000D01*
X160147000Y-120503000D01*
X160147000Y-120523000D01*
X162433000Y-120523000D01*
X162433000Y-120503000D01*
X162687000Y-120503000D01*
X162687000Y-120523000D01*
X163880155Y-120523000D01*
X164001476Y-120293110D01*
X163956825Y-120145901D01*
X163831641Y-119883080D01*
X163657588Y-119649731D01*
X163441355Y-119454822D01*
X163324477Y-119385201D01*
X163389014Y-119350706D01*
X163615134Y-119165134D01*
X163800706Y-118939014D01*
X163938599Y-118681034D01*
X164023513Y-118401111D01*
X164052185Y-118110000D01*
X164023513Y-117818889D01*
X163938599Y-117538966D01*
X163800706Y-117280986D01*
X163615134Y-117054866D01*
X163585313Y-117030393D01*
X163654180Y-117009502D01*
X163764494Y-116950537D01*
X163861185Y-116871185D01*
X163940537Y-116774494D01*
X163999502Y-116664180D01*
X164035812Y-116544482D01*
X164048072Y-116420000D01*
X164048072Y-114720000D01*
X164035812Y-114595518D01*
X163999502Y-114475820D01*
X163940537Y-114365506D01*
X163861185Y-114268815D01*
X163764494Y-114189463D01*
X163654180Y-114130498D01*
X163534482Y-114094188D01*
X163410000Y-114081928D01*
X163320000Y-114081928D01*
X163320000Y-109534801D01*
X163464004Y-109390797D01*
X163538889Y-109413513D01*
X163757050Y-109435000D01*
X163902950Y-109435000D01*
X164121111Y-109413513D01*
X164365001Y-109339530D01*
X164365000Y-121185000D01*
G36*
X162345000Y-100044250D02*
G01*
X162503750Y-100203000D01*
X163703000Y-100203000D01*
X163703000Y-100183000D01*
X163957000Y-100183000D01*
X163957000Y-100203000D01*
X163977000Y-100203000D01*
X163977000Y-100457000D01*
X163957000Y-100457000D01*
X163957000Y-100477000D01*
X163703000Y-100477000D01*
X163703000Y-100457000D01*
X162503750Y-100457000D01*
X162345000Y-100615750D01*
X162341928Y-101180000D01*
X162354188Y-101304482D01*
X162390498Y-101424180D01*
X162449463Y-101534494D01*
X162528815Y-101631185D01*
X162625506Y-101710537D01*
X162735820Y-101769502D01*
X162804687Y-101790393D01*
X162774866Y-101814866D01*
X162589294Y-102040986D01*
X162451401Y-102298966D01*
X162366487Y-102578889D01*
X162337815Y-102870000D01*
X162366487Y-103161111D01*
X162451401Y-103441034D01*
X162589294Y-103699014D01*
X162774866Y-103925134D01*
X163000986Y-104110706D01*
X163055791Y-104140000D01*
X163000986Y-104169294D01*
X162774866Y-104354866D01*
X162589294Y-104580986D01*
X162451401Y-104838966D01*
X162366487Y-105118889D01*
X162337815Y-105410000D01*
X162366487Y-105701111D01*
X162389203Y-105775995D01*
X159509003Y-108656196D01*
X159479999Y-108679999D01*
X159424871Y-108747174D01*
X159385026Y-108795724D01*
X159314455Y-108927753D01*
X159314454Y-108927754D01*
X159270997Y-109071015D01*
X159260000Y-109182668D01*
X159260000Y-109182678D01*
X159256324Y-109220000D01*
X159260000Y-109257323D01*
X159260001Y-114081928D01*
X159170000Y-114081928D01*
X159045518Y-114094188D01*
X158925820Y-114130498D01*
X158815506Y-114189463D01*
X158750000Y-114243222D01*
X158684494Y-114189463D01*
X158574180Y-114130498D01*
X158454482Y-114094188D01*
X158330000Y-114081928D01*
X157066730Y-114081928D01*
X154430000Y-111445199D01*
X154430000Y-111003965D01*
X154434876Y-111028478D01*
X154574036Y-111364441D01*
X154776066Y-111666800D01*
X155033200Y-111923934D01*
X155335559Y-112125964D01*
X155671522Y-112265124D01*
X156028178Y-112336068D01*
X156391822Y-112336068D01*
X156748478Y-112265124D01*
X157084441Y-112125964D01*
X157386800Y-111923934D01*
X157643934Y-111666800D01*
X157845964Y-111364441D01*
X157985124Y-111028478D01*
X158056068Y-110671822D01*
X158056068Y-110308178D01*
X157985124Y-109951522D01*
X157845964Y-109615559D01*
X157643934Y-109313200D01*
X157386800Y-109056066D01*
X157084441Y-108854036D01*
X156748478Y-108714876D01*
X156391822Y-108643932D01*
X156028178Y-108643932D01*
X155671522Y-108714876D01*
X155335559Y-108854036D01*
X155033200Y-109056066D01*
X154776066Y-109313200D01*
X154574036Y-109615559D01*
X154434876Y-109951522D01*
X154430000Y-109976035D01*
X154430000Y-105447322D01*
X154433676Y-105409999D01*
X154430000Y-105372676D01*
X154430000Y-105372667D01*
X154419003Y-105261014D01*
X154375546Y-105117753D01*
X154304974Y-104985724D01*
X154210001Y-104869999D01*
X154181003Y-104846201D01*
X152963803Y-103629002D01*
X152963799Y-103628997D01*
X152564544Y-103229742D01*
X154778715Y-103229742D01*
X154847904Y-103512745D01*
X154970975Y-103776812D01*
X155143198Y-104011795D01*
X155357954Y-104208664D01*
X155606991Y-104359854D01*
X155880739Y-104459554D01*
X155893110Y-104461476D01*
X156123000Y-104340155D01*
X156123000Y-102997000D01*
X154922768Y-102997000D01*
X154778715Y-103229742D01*
X152564544Y-103229742D01*
X151845060Y-102510258D01*
X154778715Y-102510258D01*
X154922768Y-102743000D01*
X156123000Y-102743000D01*
X156123000Y-101399845D01*
X156377000Y-101399845D01*
X156377000Y-102743000D01*
X156397000Y-102743000D01*
X156397000Y-102997000D01*
X156377000Y-102997000D01*
X156377000Y-104340155D01*
X156606890Y-104461476D01*
X156619261Y-104459554D01*
X156893009Y-104359854D01*
X157142046Y-104208664D01*
X157356802Y-104011795D01*
X157357086Y-104011407D01*
X157411595Y-104113386D01*
X157522038Y-104247962D01*
X157656614Y-104358405D01*
X157810150Y-104440472D01*
X157976746Y-104491008D01*
X158150000Y-104508072D01*
X159350000Y-104508072D01*
X159523254Y-104491008D01*
X159689850Y-104440472D01*
X159843386Y-104358405D01*
X159977962Y-104247962D01*
X160088405Y-104113386D01*
X160170472Y-103959850D01*
X160221008Y-103793254D01*
X160238072Y-103620000D01*
X160238072Y-102120000D01*
X160221008Y-101946746D01*
X160170472Y-101780150D01*
X160088405Y-101626614D01*
X159977962Y-101492038D01*
X159843386Y-101381595D01*
X159689850Y-101299528D01*
X159523254Y-101248992D01*
X159350000Y-101231928D01*
X158150000Y-101231928D01*
X157976746Y-101248992D01*
X157810150Y-101299528D01*
X157656614Y-101381595D01*
X157522038Y-101492038D01*
X157411595Y-101626614D01*
X157357086Y-101728593D01*
X157356802Y-101728205D01*
X157142046Y-101531336D01*
X156893009Y-101380146D01*
X156619261Y-101280446D01*
X156606890Y-101278524D01*
X156377000Y-101399845D01*
X156123000Y-101399845D01*
X155893110Y-101278524D01*
X155880739Y-101280446D01*
X155606991Y-101380146D01*
X155357954Y-101531336D01*
X155143198Y-101728205D01*
X154970975Y-101963188D01*
X154847904Y-102227255D01*
X154778715Y-102510258D01*
X151845060Y-102510258D01*
X150078072Y-100743271D01*
X150078072Y-99795000D01*
X162343643Y-99795000D01*
X162345000Y-100044250D01*
X162345000Y-100044250D01*
G37*
X162345000Y-100044250D02*
X162503750Y-100203000D01*
X163703000Y-100203000D01*
X163703000Y-100183000D01*
X163957000Y-100183000D01*
X163957000Y-100203000D01*
X163977000Y-100203000D01*
X163977000Y-100457000D01*
X163957000Y-100457000D01*
X163957000Y-100477000D01*
X163703000Y-100477000D01*
X163703000Y-100457000D01*
X162503750Y-100457000D01*
X162345000Y-100615750D01*
X162341928Y-101180000D01*
X162354188Y-101304482D01*
X162390498Y-101424180D01*
X162449463Y-101534494D01*
X162528815Y-101631185D01*
X162625506Y-101710537D01*
X162735820Y-101769502D01*
X162804687Y-101790393D01*
X162774866Y-101814866D01*
X162589294Y-102040986D01*
X162451401Y-102298966D01*
X162366487Y-102578889D01*
X162337815Y-102870000D01*
X162366487Y-103161111D01*
X162451401Y-103441034D01*
X162589294Y-103699014D01*
X162774866Y-103925134D01*
X163000986Y-104110706D01*
X163055791Y-104140000D01*
X163000986Y-104169294D01*
X162774866Y-104354866D01*
X162589294Y-104580986D01*
X162451401Y-104838966D01*
X162366487Y-105118889D01*
X162337815Y-105410000D01*
X162366487Y-105701111D01*
X162389203Y-105775995D01*
X159509003Y-108656196D01*
X159479999Y-108679999D01*
X159424871Y-108747174D01*
X159385026Y-108795724D01*
X159314455Y-108927753D01*
X159314454Y-108927754D01*
X159270997Y-109071015D01*
X159260000Y-109182668D01*
X159260000Y-109182678D01*
X159256324Y-109220000D01*
X159260000Y-109257323D01*
X159260001Y-114081928D01*
X159170000Y-114081928D01*
X159045518Y-114094188D01*
X158925820Y-114130498D01*
X158815506Y-114189463D01*
X158750000Y-114243222D01*
X158684494Y-114189463D01*
X158574180Y-114130498D01*
X158454482Y-114094188D01*
X158330000Y-114081928D01*
X157066730Y-114081928D01*
X154430000Y-111445199D01*
X154430000Y-111003965D01*
X154434876Y-111028478D01*
X154574036Y-111364441D01*
X154776066Y-111666800D01*
X155033200Y-111923934D01*
X155335559Y-112125964D01*
X155671522Y-112265124D01*
X156028178Y-112336068D01*
X156391822Y-112336068D01*
X156748478Y-112265124D01*
X157084441Y-112125964D01*
X157386800Y-111923934D01*
X157643934Y-111666800D01*
X157845964Y-111364441D01*
X157985124Y-111028478D01*
X158056068Y-110671822D01*
X158056068Y-110308178D01*
X157985124Y-109951522D01*
X157845964Y-109615559D01*
X157643934Y-109313200D01*
X157386800Y-109056066D01*
X157084441Y-108854036D01*
X156748478Y-108714876D01*
X156391822Y-108643932D01*
X156028178Y-108643932D01*
X155671522Y-108714876D01*
X155335559Y-108854036D01*
X155033200Y-109056066D01*
X154776066Y-109313200D01*
X154574036Y-109615559D01*
X154434876Y-109951522D01*
X154430000Y-109976035D01*
X154430000Y-105447322D01*
X154433676Y-105409999D01*
X154430000Y-105372676D01*
X154430000Y-105372667D01*
X154419003Y-105261014D01*
X154375546Y-105117753D01*
X154304974Y-104985724D01*
X154210001Y-104869999D01*
X154181003Y-104846201D01*
X152963803Y-103629002D01*
X152963799Y-103628997D01*
X152564544Y-103229742D01*
X154778715Y-103229742D01*
X154847904Y-103512745D01*
X154970975Y-103776812D01*
X155143198Y-104011795D01*
X155357954Y-104208664D01*
X155606991Y-104359854D01*
X155880739Y-104459554D01*
X155893110Y-104461476D01*
X156123000Y-104340155D01*
X156123000Y-102997000D01*
X154922768Y-102997000D01*
X154778715Y-103229742D01*
X152564544Y-103229742D01*
X151845060Y-102510258D01*
X154778715Y-102510258D01*
X154922768Y-102743000D01*
X156123000Y-102743000D01*
X156123000Y-101399845D01*
X156377000Y-101399845D01*
X156377000Y-102743000D01*
X156397000Y-102743000D01*
X156397000Y-102997000D01*
X156377000Y-102997000D01*
X156377000Y-104340155D01*
X156606890Y-104461476D01*
X156619261Y-104459554D01*
X156893009Y-104359854D01*
X157142046Y-104208664D01*
X157356802Y-104011795D01*
X157357086Y-104011407D01*
X157411595Y-104113386D01*
X157522038Y-104247962D01*
X157656614Y-104358405D01*
X157810150Y-104440472D01*
X157976746Y-104491008D01*
X158150000Y-104508072D01*
X159350000Y-104508072D01*
X159523254Y-104491008D01*
X159689850Y-104440472D01*
X159843386Y-104358405D01*
X159977962Y-104247962D01*
X160088405Y-104113386D01*
X160170472Y-103959850D01*
X160221008Y-103793254D01*
X160238072Y-103620000D01*
X160238072Y-102120000D01*
X160221008Y-101946746D01*
X160170472Y-101780150D01*
X160088405Y-101626614D01*
X159977962Y-101492038D01*
X159843386Y-101381595D01*
X159689850Y-101299528D01*
X159523254Y-101248992D01*
X159350000Y-101231928D01*
X158150000Y-101231928D01*
X157976746Y-101248992D01*
X157810150Y-101299528D01*
X157656614Y-101381595D01*
X157522038Y-101492038D01*
X157411595Y-101626614D01*
X157357086Y-101728593D01*
X157356802Y-101728205D01*
X157142046Y-101531336D01*
X156893009Y-101380146D01*
X156619261Y-101280446D01*
X156606890Y-101278524D01*
X156377000Y-101399845D01*
X156123000Y-101399845D01*
X155893110Y-101278524D01*
X155880739Y-101280446D01*
X155606991Y-101380146D01*
X155357954Y-101531336D01*
X155143198Y-101728205D01*
X154970975Y-101963188D01*
X154847904Y-102227255D01*
X154778715Y-102510258D01*
X151845060Y-102510258D01*
X150078072Y-100743271D01*
X150078072Y-99795000D01*
X162343643Y-99795000D01*
X162345000Y-100044250D01*
M02*
