G04 #@! TF.GenerationSoftware,KiCad,Pcbnew,(5.1.4-0-10_14)*
G04 #@! TF.CreationDate,2022-08-18T21:45:17+09:00*
G04 #@! TF.ProjectId,NX13,4e583133-2e6b-4696-9361-645f70636258,rev?*
G04 #@! TF.SameCoordinates,Original*
G04 #@! TF.FileFunction,Soldermask,Top*
G04 #@! TF.FilePolarity,Negative*
%FSLAX46Y46*%
G04 Gerber Fmt 4.6, Leading zero omitted, Abs format (unit mm)*
G04 Created by KiCad (PCBNEW (5.1.4-0-10_14)) date 2022-08-18 21:45:17*
%MOMM*%
%LPD*%
G04 APERTURE LIST*
%ADD10C,0.100000*%
G04 APERTURE END LIST*
D10*
G36*
X162670442Y-119755518D02*
G01*
X162736627Y-119762037D01*
X162906466Y-119813557D01*
X163062991Y-119897222D01*
X163098729Y-119926552D01*
X163200186Y-120009814D01*
X163283448Y-120111271D01*
X163312778Y-120147009D01*
X163396443Y-120303534D01*
X163447963Y-120473373D01*
X163465359Y-120650000D01*
X163447963Y-120826627D01*
X163396443Y-120996466D01*
X163312778Y-121152991D01*
X163283448Y-121188729D01*
X163200186Y-121290186D01*
X163098729Y-121373448D01*
X163062991Y-121402778D01*
X162906466Y-121486443D01*
X162736627Y-121537963D01*
X162670443Y-121544481D01*
X162604260Y-121551000D01*
X162515740Y-121551000D01*
X162449557Y-121544481D01*
X162383373Y-121537963D01*
X162213534Y-121486443D01*
X162057009Y-121402778D01*
X162021271Y-121373448D01*
X161919814Y-121290186D01*
X161836552Y-121188729D01*
X161807222Y-121152991D01*
X161723557Y-120996466D01*
X161672037Y-120826627D01*
X161654641Y-120650000D01*
X161672037Y-120473373D01*
X161723557Y-120303534D01*
X161807222Y-120147009D01*
X161836552Y-120111271D01*
X161919814Y-120009814D01*
X162021271Y-119926552D01*
X162057009Y-119897222D01*
X162213534Y-119813557D01*
X162383373Y-119762037D01*
X162449558Y-119755518D01*
X162515740Y-119749000D01*
X162604260Y-119749000D01*
X162670442Y-119755518D01*
X162670442Y-119755518D01*
G37*
G36*
X160130442Y-119755518D02*
G01*
X160196627Y-119762037D01*
X160366466Y-119813557D01*
X160522991Y-119897222D01*
X160558729Y-119926552D01*
X160660186Y-120009814D01*
X160743448Y-120111271D01*
X160772778Y-120147009D01*
X160856443Y-120303534D01*
X160907963Y-120473373D01*
X160925359Y-120650000D01*
X160907963Y-120826627D01*
X160856443Y-120996466D01*
X160772778Y-121152991D01*
X160743448Y-121188729D01*
X160660186Y-121290186D01*
X160558729Y-121373448D01*
X160522991Y-121402778D01*
X160366466Y-121486443D01*
X160196627Y-121537963D01*
X160130443Y-121544481D01*
X160064260Y-121551000D01*
X159975740Y-121551000D01*
X159909557Y-121544481D01*
X159843373Y-121537963D01*
X159673534Y-121486443D01*
X159517009Y-121402778D01*
X159481271Y-121373448D01*
X159379814Y-121290186D01*
X159296552Y-121188729D01*
X159267222Y-121152991D01*
X159183557Y-120996466D01*
X159132037Y-120826627D01*
X159114641Y-120650000D01*
X159132037Y-120473373D01*
X159183557Y-120303534D01*
X159267222Y-120147009D01*
X159296552Y-120111271D01*
X159379814Y-120009814D01*
X159481271Y-119926552D01*
X159517009Y-119897222D01*
X159673534Y-119813557D01*
X159843373Y-119762037D01*
X159909558Y-119755518D01*
X159975740Y-119749000D01*
X160064260Y-119749000D01*
X160130442Y-119755518D01*
X160130442Y-119755518D01*
G37*
G36*
X157590442Y-119755518D02*
G01*
X157656627Y-119762037D01*
X157826466Y-119813557D01*
X157982991Y-119897222D01*
X158018729Y-119926552D01*
X158120186Y-120009814D01*
X158203448Y-120111271D01*
X158232778Y-120147009D01*
X158316443Y-120303534D01*
X158367963Y-120473373D01*
X158385359Y-120650000D01*
X158367963Y-120826627D01*
X158316443Y-120996466D01*
X158232778Y-121152991D01*
X158203448Y-121188729D01*
X158120186Y-121290186D01*
X158018729Y-121373448D01*
X157982991Y-121402778D01*
X157826466Y-121486443D01*
X157656627Y-121537963D01*
X157590443Y-121544481D01*
X157524260Y-121551000D01*
X157435740Y-121551000D01*
X157369557Y-121544481D01*
X157303373Y-121537963D01*
X157133534Y-121486443D01*
X156977009Y-121402778D01*
X156941271Y-121373448D01*
X156839814Y-121290186D01*
X156756552Y-121188729D01*
X156727222Y-121152991D01*
X156643557Y-120996466D01*
X156592037Y-120826627D01*
X156574641Y-120650000D01*
X156592037Y-120473373D01*
X156643557Y-120303534D01*
X156727222Y-120147009D01*
X156756552Y-120111271D01*
X156839814Y-120009814D01*
X156941271Y-119926552D01*
X156977009Y-119897222D01*
X157133534Y-119813557D01*
X157303373Y-119762037D01*
X157369558Y-119755518D01*
X157435740Y-119749000D01*
X157524260Y-119749000D01*
X157590442Y-119755518D01*
X157590442Y-119755518D01*
G37*
G36*
X155050442Y-119755518D02*
G01*
X155116627Y-119762037D01*
X155286466Y-119813557D01*
X155442991Y-119897222D01*
X155478729Y-119926552D01*
X155580186Y-120009814D01*
X155663448Y-120111271D01*
X155692778Y-120147009D01*
X155776443Y-120303534D01*
X155827963Y-120473373D01*
X155845359Y-120650000D01*
X155827963Y-120826627D01*
X155776443Y-120996466D01*
X155692778Y-121152991D01*
X155663448Y-121188729D01*
X155580186Y-121290186D01*
X155478729Y-121373448D01*
X155442991Y-121402778D01*
X155286466Y-121486443D01*
X155116627Y-121537963D01*
X155050443Y-121544481D01*
X154984260Y-121551000D01*
X154895740Y-121551000D01*
X154829557Y-121544481D01*
X154763373Y-121537963D01*
X154593534Y-121486443D01*
X154437009Y-121402778D01*
X154401271Y-121373448D01*
X154299814Y-121290186D01*
X154216552Y-121188729D01*
X154187222Y-121152991D01*
X154103557Y-120996466D01*
X154052037Y-120826627D01*
X154034641Y-120650000D01*
X154052037Y-120473373D01*
X154103557Y-120303534D01*
X154187222Y-120147009D01*
X154216552Y-120111271D01*
X154299814Y-120009814D01*
X154401271Y-119926552D01*
X154437009Y-119897222D01*
X154593534Y-119813557D01*
X154763373Y-119762037D01*
X154829558Y-119755518D01*
X154895740Y-119749000D01*
X154984260Y-119749000D01*
X155050442Y-119755518D01*
X155050442Y-119755518D01*
G37*
G36*
X152510442Y-119755518D02*
G01*
X152576627Y-119762037D01*
X152746466Y-119813557D01*
X152902991Y-119897222D01*
X152938729Y-119926552D01*
X153040186Y-120009814D01*
X153123448Y-120111271D01*
X153152778Y-120147009D01*
X153236443Y-120303534D01*
X153287963Y-120473373D01*
X153305359Y-120650000D01*
X153287963Y-120826627D01*
X153236443Y-120996466D01*
X153152778Y-121152991D01*
X153123448Y-121188729D01*
X153040186Y-121290186D01*
X152938729Y-121373448D01*
X152902991Y-121402778D01*
X152746466Y-121486443D01*
X152576627Y-121537963D01*
X152510443Y-121544481D01*
X152444260Y-121551000D01*
X152355740Y-121551000D01*
X152289557Y-121544481D01*
X152223373Y-121537963D01*
X152053534Y-121486443D01*
X151897009Y-121402778D01*
X151861271Y-121373448D01*
X151759814Y-121290186D01*
X151676552Y-121188729D01*
X151647222Y-121152991D01*
X151563557Y-120996466D01*
X151512037Y-120826627D01*
X151494641Y-120650000D01*
X151512037Y-120473373D01*
X151563557Y-120303534D01*
X151647222Y-120147009D01*
X151676552Y-120111271D01*
X151759814Y-120009814D01*
X151861271Y-119926552D01*
X151897009Y-119897222D01*
X152053534Y-119813557D01*
X152223373Y-119762037D01*
X152289558Y-119755518D01*
X152355740Y-119749000D01*
X152444260Y-119749000D01*
X152510442Y-119755518D01*
X152510442Y-119755518D01*
G37*
G36*
X149970442Y-119755518D02*
G01*
X150036627Y-119762037D01*
X150206466Y-119813557D01*
X150362991Y-119897222D01*
X150398729Y-119926552D01*
X150500186Y-120009814D01*
X150583448Y-120111271D01*
X150612778Y-120147009D01*
X150696443Y-120303534D01*
X150747963Y-120473373D01*
X150765359Y-120650000D01*
X150747963Y-120826627D01*
X150696443Y-120996466D01*
X150612778Y-121152991D01*
X150583448Y-121188729D01*
X150500186Y-121290186D01*
X150398729Y-121373448D01*
X150362991Y-121402778D01*
X150206466Y-121486443D01*
X150036627Y-121537963D01*
X149970443Y-121544481D01*
X149904260Y-121551000D01*
X149815740Y-121551000D01*
X149749557Y-121544481D01*
X149683373Y-121537963D01*
X149513534Y-121486443D01*
X149357009Y-121402778D01*
X149321271Y-121373448D01*
X149219814Y-121290186D01*
X149136552Y-121188729D01*
X149107222Y-121152991D01*
X149023557Y-120996466D01*
X148972037Y-120826627D01*
X148954641Y-120650000D01*
X148972037Y-120473373D01*
X149023557Y-120303534D01*
X149107222Y-120147009D01*
X149136552Y-120111271D01*
X149219814Y-120009814D01*
X149321271Y-119926552D01*
X149357009Y-119897222D01*
X149513534Y-119813557D01*
X149683373Y-119762037D01*
X149749558Y-119755518D01*
X149815740Y-119749000D01*
X149904260Y-119749000D01*
X149970442Y-119755518D01*
X149970442Y-119755518D01*
G37*
G36*
X155050443Y-117215519D02*
G01*
X155116627Y-117222037D01*
X155286466Y-117273557D01*
X155442991Y-117357222D01*
X155478729Y-117386552D01*
X155580186Y-117469814D01*
X155663448Y-117571271D01*
X155692778Y-117607009D01*
X155776443Y-117763534D01*
X155827963Y-117933373D01*
X155845359Y-118110000D01*
X155827963Y-118286627D01*
X155776443Y-118456466D01*
X155692778Y-118612991D01*
X155663448Y-118648729D01*
X155580186Y-118750186D01*
X155478729Y-118833448D01*
X155442991Y-118862778D01*
X155286466Y-118946443D01*
X155116627Y-118997963D01*
X155050443Y-119004481D01*
X154984260Y-119011000D01*
X154895740Y-119011000D01*
X154829557Y-119004481D01*
X154763373Y-118997963D01*
X154593534Y-118946443D01*
X154437009Y-118862778D01*
X154401271Y-118833448D01*
X154299814Y-118750186D01*
X154216552Y-118648729D01*
X154187222Y-118612991D01*
X154103557Y-118456466D01*
X154052037Y-118286627D01*
X154034641Y-118110000D01*
X154052037Y-117933373D01*
X154103557Y-117763534D01*
X154187222Y-117607009D01*
X154216552Y-117571271D01*
X154299814Y-117469814D01*
X154401271Y-117386552D01*
X154437009Y-117357222D01*
X154593534Y-117273557D01*
X154763373Y-117222037D01*
X154829557Y-117215519D01*
X154895740Y-117209000D01*
X154984260Y-117209000D01*
X155050443Y-117215519D01*
X155050443Y-117215519D01*
G37*
G36*
X149970443Y-117215519D02*
G01*
X150036627Y-117222037D01*
X150206466Y-117273557D01*
X150362991Y-117357222D01*
X150398729Y-117386552D01*
X150500186Y-117469814D01*
X150583448Y-117571271D01*
X150612778Y-117607009D01*
X150696443Y-117763534D01*
X150747963Y-117933373D01*
X150765359Y-118110000D01*
X150747963Y-118286627D01*
X150696443Y-118456466D01*
X150612778Y-118612991D01*
X150583448Y-118648729D01*
X150500186Y-118750186D01*
X150398729Y-118833448D01*
X150362991Y-118862778D01*
X150206466Y-118946443D01*
X150036627Y-118997963D01*
X149970443Y-119004481D01*
X149904260Y-119011000D01*
X149815740Y-119011000D01*
X149749557Y-119004481D01*
X149683373Y-118997963D01*
X149513534Y-118946443D01*
X149357009Y-118862778D01*
X149321271Y-118833448D01*
X149219814Y-118750186D01*
X149136552Y-118648729D01*
X149107222Y-118612991D01*
X149023557Y-118456466D01*
X148972037Y-118286627D01*
X148954641Y-118110000D01*
X148972037Y-117933373D01*
X149023557Y-117763534D01*
X149107222Y-117607009D01*
X149136552Y-117571271D01*
X149219814Y-117469814D01*
X149321271Y-117386552D01*
X149357009Y-117357222D01*
X149513534Y-117273557D01*
X149683373Y-117222037D01*
X149749557Y-117215519D01*
X149815740Y-117209000D01*
X149904260Y-117209000D01*
X149970443Y-117215519D01*
X149970443Y-117215519D01*
G37*
G36*
X162670443Y-117215519D02*
G01*
X162736627Y-117222037D01*
X162906466Y-117273557D01*
X163062991Y-117357222D01*
X163098729Y-117386552D01*
X163200186Y-117469814D01*
X163283448Y-117571271D01*
X163312778Y-117607009D01*
X163396443Y-117763534D01*
X163447963Y-117933373D01*
X163465359Y-118110000D01*
X163447963Y-118286627D01*
X163396443Y-118456466D01*
X163312778Y-118612991D01*
X163283448Y-118648729D01*
X163200186Y-118750186D01*
X163098729Y-118833448D01*
X163062991Y-118862778D01*
X162906466Y-118946443D01*
X162736627Y-118997963D01*
X162670443Y-119004481D01*
X162604260Y-119011000D01*
X162515740Y-119011000D01*
X162449557Y-119004481D01*
X162383373Y-118997963D01*
X162213534Y-118946443D01*
X162057009Y-118862778D01*
X162021271Y-118833448D01*
X161919814Y-118750186D01*
X161836552Y-118648729D01*
X161807222Y-118612991D01*
X161723557Y-118456466D01*
X161672037Y-118286627D01*
X161654641Y-118110000D01*
X161672037Y-117933373D01*
X161723557Y-117763534D01*
X161807222Y-117607009D01*
X161836552Y-117571271D01*
X161919814Y-117469814D01*
X162021271Y-117386552D01*
X162057009Y-117357222D01*
X162213534Y-117273557D01*
X162383373Y-117222037D01*
X162449557Y-117215519D01*
X162515740Y-117209000D01*
X162604260Y-117209000D01*
X162670443Y-117215519D01*
X162670443Y-117215519D01*
G37*
G36*
X152510443Y-117215519D02*
G01*
X152576627Y-117222037D01*
X152746466Y-117273557D01*
X152902991Y-117357222D01*
X152938729Y-117386552D01*
X153040186Y-117469814D01*
X153123448Y-117571271D01*
X153152778Y-117607009D01*
X153236443Y-117763534D01*
X153287963Y-117933373D01*
X153305359Y-118110000D01*
X153287963Y-118286627D01*
X153236443Y-118456466D01*
X153152778Y-118612991D01*
X153123448Y-118648729D01*
X153040186Y-118750186D01*
X152938729Y-118833448D01*
X152902991Y-118862778D01*
X152746466Y-118946443D01*
X152576627Y-118997963D01*
X152510443Y-119004481D01*
X152444260Y-119011000D01*
X152355740Y-119011000D01*
X152289557Y-119004481D01*
X152223373Y-118997963D01*
X152053534Y-118946443D01*
X151897009Y-118862778D01*
X151861271Y-118833448D01*
X151759814Y-118750186D01*
X151676552Y-118648729D01*
X151647222Y-118612991D01*
X151563557Y-118456466D01*
X151512037Y-118286627D01*
X151494641Y-118110000D01*
X151512037Y-117933373D01*
X151563557Y-117763534D01*
X151647222Y-117607009D01*
X151676552Y-117571271D01*
X151759814Y-117469814D01*
X151861271Y-117386552D01*
X151897009Y-117357222D01*
X152053534Y-117273557D01*
X152223373Y-117222037D01*
X152289557Y-117215519D01*
X152355740Y-117209000D01*
X152444260Y-117209000D01*
X152510443Y-117215519D01*
X152510443Y-117215519D01*
G37*
G36*
X160130443Y-117215519D02*
G01*
X160196627Y-117222037D01*
X160366466Y-117273557D01*
X160522991Y-117357222D01*
X160558729Y-117386552D01*
X160660186Y-117469814D01*
X160743448Y-117571271D01*
X160772778Y-117607009D01*
X160856443Y-117763534D01*
X160907963Y-117933373D01*
X160925359Y-118110000D01*
X160907963Y-118286627D01*
X160856443Y-118456466D01*
X160772778Y-118612991D01*
X160743448Y-118648729D01*
X160660186Y-118750186D01*
X160558729Y-118833448D01*
X160522991Y-118862778D01*
X160366466Y-118946443D01*
X160196627Y-118997963D01*
X160130443Y-119004481D01*
X160064260Y-119011000D01*
X159975740Y-119011000D01*
X159909557Y-119004481D01*
X159843373Y-118997963D01*
X159673534Y-118946443D01*
X159517009Y-118862778D01*
X159481271Y-118833448D01*
X159379814Y-118750186D01*
X159296552Y-118648729D01*
X159267222Y-118612991D01*
X159183557Y-118456466D01*
X159132037Y-118286627D01*
X159114641Y-118110000D01*
X159132037Y-117933373D01*
X159183557Y-117763534D01*
X159267222Y-117607009D01*
X159296552Y-117571271D01*
X159379814Y-117469814D01*
X159481271Y-117386552D01*
X159517009Y-117357222D01*
X159673534Y-117273557D01*
X159843373Y-117222037D01*
X159909557Y-117215519D01*
X159975740Y-117209000D01*
X160064260Y-117209000D01*
X160130443Y-117215519D01*
X160130443Y-117215519D01*
G37*
G36*
X157590443Y-117215519D02*
G01*
X157656627Y-117222037D01*
X157826466Y-117273557D01*
X157982991Y-117357222D01*
X158018729Y-117386552D01*
X158120186Y-117469814D01*
X158203448Y-117571271D01*
X158232778Y-117607009D01*
X158316443Y-117763534D01*
X158367963Y-117933373D01*
X158385359Y-118110000D01*
X158367963Y-118286627D01*
X158316443Y-118456466D01*
X158232778Y-118612991D01*
X158203448Y-118648729D01*
X158120186Y-118750186D01*
X158018729Y-118833448D01*
X157982991Y-118862778D01*
X157826466Y-118946443D01*
X157656627Y-118997963D01*
X157590443Y-119004481D01*
X157524260Y-119011000D01*
X157435740Y-119011000D01*
X157369557Y-119004481D01*
X157303373Y-118997963D01*
X157133534Y-118946443D01*
X156977009Y-118862778D01*
X156941271Y-118833448D01*
X156839814Y-118750186D01*
X156756552Y-118648729D01*
X156727222Y-118612991D01*
X156643557Y-118456466D01*
X156592037Y-118286627D01*
X156574641Y-118110000D01*
X156592037Y-117933373D01*
X156643557Y-117763534D01*
X156727222Y-117607009D01*
X156756552Y-117571271D01*
X156839814Y-117469814D01*
X156941271Y-117386552D01*
X156977009Y-117357222D01*
X157133534Y-117273557D01*
X157303373Y-117222037D01*
X157369557Y-117215519D01*
X157435740Y-117209000D01*
X157524260Y-117209000D01*
X157590443Y-117215519D01*
X157590443Y-117215519D01*
G37*
G36*
X163461000Y-116471000D02*
G01*
X161659000Y-116471000D01*
X161659000Y-114669000D01*
X163461000Y-114669000D01*
X163461000Y-116471000D01*
X163461000Y-116471000D01*
G37*
G36*
X153301000Y-116471000D02*
G01*
X151499000Y-116471000D01*
X151499000Y-114669000D01*
X153301000Y-114669000D01*
X153301000Y-116471000D01*
X153301000Y-116471000D01*
G37*
G36*
X160921000Y-116471000D02*
G01*
X159119000Y-116471000D01*
X159119000Y-114669000D01*
X160921000Y-114669000D01*
X160921000Y-116471000D01*
X160921000Y-116471000D01*
G37*
G36*
X158381000Y-116471000D02*
G01*
X156579000Y-116471000D01*
X156579000Y-114669000D01*
X158381000Y-114669000D01*
X158381000Y-116471000D01*
X158381000Y-116471000D01*
G37*
G36*
X150761000Y-116471000D02*
G01*
X148959000Y-116471000D01*
X148959000Y-114669000D01*
X150761000Y-114669000D01*
X150761000Y-116471000D01*
X150761000Y-116471000D01*
G37*
G36*
X155841000Y-116471000D02*
G01*
X154039000Y-116471000D01*
X154039000Y-114669000D01*
X155841000Y-114669000D01*
X155841000Y-116471000D01*
X155841000Y-116471000D01*
G37*
G36*
X148700442Y-109595518D02*
G01*
X148766627Y-109602037D01*
X148936466Y-109653557D01*
X149092991Y-109737222D01*
X149128729Y-109766552D01*
X149230186Y-109849814D01*
X149313448Y-109951271D01*
X149342778Y-109987009D01*
X149426443Y-110143534D01*
X149477963Y-110313373D01*
X149495359Y-110490000D01*
X149477963Y-110666627D01*
X149426443Y-110836466D01*
X149342778Y-110992991D01*
X149313448Y-111028729D01*
X149230186Y-111130186D01*
X149128729Y-111213448D01*
X149092991Y-111242778D01*
X148936466Y-111326443D01*
X148766627Y-111377963D01*
X148700443Y-111384481D01*
X148634260Y-111391000D01*
X148545740Y-111391000D01*
X148479557Y-111384481D01*
X148413373Y-111377963D01*
X148243534Y-111326443D01*
X148087009Y-111242778D01*
X148051271Y-111213448D01*
X147949814Y-111130186D01*
X147866552Y-111028729D01*
X147837222Y-110992991D01*
X147753557Y-110836466D01*
X147702037Y-110666627D01*
X147684641Y-110490000D01*
X147702037Y-110313373D01*
X147753557Y-110143534D01*
X147837222Y-109987009D01*
X147866552Y-109951271D01*
X147949814Y-109849814D01*
X148051271Y-109766552D01*
X148087009Y-109737222D01*
X148243534Y-109653557D01*
X148413373Y-109602037D01*
X148479558Y-109595518D01*
X148545740Y-109589000D01*
X148634260Y-109589000D01*
X148700442Y-109595518D01*
X148700442Y-109595518D01*
G37*
G36*
X148700442Y-107055518D02*
G01*
X148766627Y-107062037D01*
X148936466Y-107113557D01*
X149092991Y-107197222D01*
X149128729Y-107226552D01*
X149230186Y-107309814D01*
X149313448Y-107411271D01*
X149342778Y-107447009D01*
X149426443Y-107603534D01*
X149477963Y-107773373D01*
X149495359Y-107950000D01*
X149477963Y-108126627D01*
X149426443Y-108296466D01*
X149342778Y-108452991D01*
X149313448Y-108488729D01*
X149230186Y-108590186D01*
X149128729Y-108673448D01*
X149092991Y-108702778D01*
X148936466Y-108786443D01*
X148766627Y-108837963D01*
X148700442Y-108844482D01*
X148634260Y-108851000D01*
X148545740Y-108851000D01*
X148479558Y-108844482D01*
X148413373Y-108837963D01*
X148243534Y-108786443D01*
X148087009Y-108702778D01*
X148051271Y-108673448D01*
X147949814Y-108590186D01*
X147866552Y-108488729D01*
X147837222Y-108452991D01*
X147753557Y-108296466D01*
X147702037Y-108126627D01*
X147684641Y-107950000D01*
X147702037Y-107773373D01*
X147753557Y-107603534D01*
X147837222Y-107447009D01*
X147866552Y-107411271D01*
X147949814Y-107309814D01*
X148051271Y-107226552D01*
X148087009Y-107197222D01*
X148243534Y-107113557D01*
X148413373Y-107062037D01*
X148479558Y-107055518D01*
X148545740Y-107049000D01*
X148634260Y-107049000D01*
X148700442Y-107055518D01*
X148700442Y-107055518D01*
G37*
G36*
X163940442Y-107055518D02*
G01*
X164006627Y-107062037D01*
X164176466Y-107113557D01*
X164332991Y-107197222D01*
X164368729Y-107226552D01*
X164470186Y-107309814D01*
X164553448Y-107411271D01*
X164582778Y-107447009D01*
X164666443Y-107603534D01*
X164717963Y-107773373D01*
X164735359Y-107950000D01*
X164717963Y-108126627D01*
X164666443Y-108296466D01*
X164582778Y-108452991D01*
X164553448Y-108488729D01*
X164470186Y-108590186D01*
X164368729Y-108673448D01*
X164332991Y-108702778D01*
X164176466Y-108786443D01*
X164006627Y-108837963D01*
X163940442Y-108844482D01*
X163874260Y-108851000D01*
X163785740Y-108851000D01*
X163719558Y-108844482D01*
X163653373Y-108837963D01*
X163483534Y-108786443D01*
X163327009Y-108702778D01*
X163291271Y-108673448D01*
X163189814Y-108590186D01*
X163106552Y-108488729D01*
X163077222Y-108452991D01*
X162993557Y-108296466D01*
X162942037Y-108126627D01*
X162924641Y-107950000D01*
X162942037Y-107773373D01*
X162993557Y-107603534D01*
X163077222Y-107447009D01*
X163106552Y-107411271D01*
X163189814Y-107309814D01*
X163291271Y-107226552D01*
X163327009Y-107197222D01*
X163483534Y-107113557D01*
X163653373Y-107062037D01*
X163719558Y-107055518D01*
X163785740Y-107049000D01*
X163874260Y-107049000D01*
X163940442Y-107055518D01*
X163940442Y-107055518D01*
G37*
G36*
X148700443Y-104515519D02*
G01*
X148766627Y-104522037D01*
X148936466Y-104573557D01*
X149092991Y-104657222D01*
X149128729Y-104686552D01*
X149230186Y-104769814D01*
X149313448Y-104871271D01*
X149342778Y-104907009D01*
X149426443Y-105063534D01*
X149477963Y-105233373D01*
X149495359Y-105410000D01*
X149477963Y-105586627D01*
X149426443Y-105756466D01*
X149342778Y-105912991D01*
X149313448Y-105948729D01*
X149230186Y-106050186D01*
X149128729Y-106133448D01*
X149092991Y-106162778D01*
X148936466Y-106246443D01*
X148766627Y-106297963D01*
X148700442Y-106304482D01*
X148634260Y-106311000D01*
X148545740Y-106311000D01*
X148479558Y-106304482D01*
X148413373Y-106297963D01*
X148243534Y-106246443D01*
X148087009Y-106162778D01*
X148051271Y-106133448D01*
X147949814Y-106050186D01*
X147866552Y-105948729D01*
X147837222Y-105912991D01*
X147753557Y-105756466D01*
X147702037Y-105586627D01*
X147684641Y-105410000D01*
X147702037Y-105233373D01*
X147753557Y-105063534D01*
X147837222Y-104907009D01*
X147866552Y-104871271D01*
X147949814Y-104769814D01*
X148051271Y-104686552D01*
X148087009Y-104657222D01*
X148243534Y-104573557D01*
X148413373Y-104522037D01*
X148479557Y-104515519D01*
X148545740Y-104509000D01*
X148634260Y-104509000D01*
X148700443Y-104515519D01*
X148700443Y-104515519D01*
G37*
G36*
X163940443Y-104515519D02*
G01*
X164006627Y-104522037D01*
X164176466Y-104573557D01*
X164332991Y-104657222D01*
X164368729Y-104686552D01*
X164470186Y-104769814D01*
X164553448Y-104871271D01*
X164582778Y-104907009D01*
X164666443Y-105063534D01*
X164717963Y-105233373D01*
X164735359Y-105410000D01*
X164717963Y-105586627D01*
X164666443Y-105756466D01*
X164582778Y-105912991D01*
X164553448Y-105948729D01*
X164470186Y-106050186D01*
X164368729Y-106133448D01*
X164332991Y-106162778D01*
X164176466Y-106246443D01*
X164006627Y-106297963D01*
X163940442Y-106304482D01*
X163874260Y-106311000D01*
X163785740Y-106311000D01*
X163719558Y-106304482D01*
X163653373Y-106297963D01*
X163483534Y-106246443D01*
X163327009Y-106162778D01*
X163291271Y-106133448D01*
X163189814Y-106050186D01*
X163106552Y-105948729D01*
X163077222Y-105912991D01*
X162993557Y-105756466D01*
X162942037Y-105586627D01*
X162924641Y-105410000D01*
X162942037Y-105233373D01*
X162993557Y-105063534D01*
X163077222Y-104907009D01*
X163106552Y-104871271D01*
X163189814Y-104769814D01*
X163291271Y-104686552D01*
X163327009Y-104657222D01*
X163483534Y-104573557D01*
X163653373Y-104522037D01*
X163719557Y-104515519D01*
X163785740Y-104509000D01*
X163874260Y-104509000D01*
X163940443Y-104515519D01*
X163940443Y-104515519D01*
G37*
G36*
X156426627Y-101832037D02*
G01*
X156596466Y-101883557D01*
X156752991Y-101967222D01*
X156788729Y-101996552D01*
X156890186Y-102079814D01*
X156973448Y-102181271D01*
X157002778Y-102217009D01*
X157086443Y-102373534D01*
X157137963Y-102543374D01*
X157151000Y-102675743D01*
X157151000Y-103064258D01*
X157137963Y-103196627D01*
X157086443Y-103366466D01*
X157002778Y-103522991D01*
X156973448Y-103558729D01*
X156890186Y-103660186D01*
X156752989Y-103772779D01*
X156596467Y-103856442D01*
X156596465Y-103856443D01*
X156426626Y-103907963D01*
X156250000Y-103925359D01*
X156073373Y-103907963D01*
X155903534Y-103856443D01*
X155747009Y-103772778D01*
X155704750Y-103738097D01*
X155609814Y-103660186D01*
X155497221Y-103522989D01*
X155413558Y-103366467D01*
X155413557Y-103366465D01*
X155362037Y-103196626D01*
X155349000Y-103064257D01*
X155349000Y-102675742D01*
X155362037Y-102543373D01*
X155413557Y-102373534D01*
X155497222Y-102217009D01*
X155609815Y-102079815D01*
X155747010Y-101967222D01*
X155903535Y-101883557D01*
X156073374Y-101832037D01*
X156250000Y-101814641D01*
X156426627Y-101832037D01*
X156426627Y-101832037D01*
G37*
G36*
X159508600Y-101822989D02*
G01*
X159541652Y-101833015D01*
X159572103Y-101849292D01*
X159598799Y-101871201D01*
X159620708Y-101897897D01*
X159636985Y-101928348D01*
X159647011Y-101961400D01*
X159651000Y-102001903D01*
X159651000Y-103738097D01*
X159647011Y-103778600D01*
X159636985Y-103811652D01*
X159620708Y-103842103D01*
X159598799Y-103868799D01*
X159572103Y-103890708D01*
X159541652Y-103906985D01*
X159508600Y-103917011D01*
X159468097Y-103921000D01*
X158031903Y-103921000D01*
X157991400Y-103917011D01*
X157958348Y-103906985D01*
X157927897Y-103890708D01*
X157901201Y-103868799D01*
X157879292Y-103842103D01*
X157863015Y-103811652D01*
X157852989Y-103778600D01*
X157849000Y-103738097D01*
X157849000Y-102001903D01*
X157852989Y-101961400D01*
X157863015Y-101928348D01*
X157879292Y-101897897D01*
X157901201Y-101871201D01*
X157927897Y-101849292D01*
X157958348Y-101833015D01*
X157991400Y-101822989D01*
X158031903Y-101819000D01*
X159468097Y-101819000D01*
X159508600Y-101822989D01*
X159508600Y-101822989D01*
G37*
G36*
X163940442Y-101975518D02*
G01*
X164006627Y-101982037D01*
X164176466Y-102033557D01*
X164332991Y-102117222D01*
X164368729Y-102146552D01*
X164470186Y-102229814D01*
X164553448Y-102331271D01*
X164582778Y-102367009D01*
X164666443Y-102523534D01*
X164717963Y-102693373D01*
X164735359Y-102870000D01*
X164717963Y-103046627D01*
X164666443Y-103216466D01*
X164582778Y-103372991D01*
X164553448Y-103408729D01*
X164470186Y-103510186D01*
X164368729Y-103593448D01*
X164332991Y-103622778D01*
X164176466Y-103706443D01*
X164006627Y-103757963D01*
X163940443Y-103764481D01*
X163874260Y-103771000D01*
X163785740Y-103771000D01*
X163719557Y-103764481D01*
X163653373Y-103757963D01*
X163483534Y-103706443D01*
X163327009Y-103622778D01*
X163291271Y-103593448D01*
X163189814Y-103510186D01*
X163106552Y-103408729D01*
X163077222Y-103372991D01*
X162993557Y-103216466D01*
X162942037Y-103046627D01*
X162924641Y-102870000D01*
X162942037Y-102693373D01*
X162993557Y-102523534D01*
X163077222Y-102367009D01*
X163106552Y-102331271D01*
X163189814Y-102229814D01*
X163291271Y-102146552D01*
X163327009Y-102117222D01*
X163483534Y-102033557D01*
X163653373Y-101982037D01*
X163719558Y-101975518D01*
X163785740Y-101969000D01*
X163874260Y-101969000D01*
X163940442Y-101975518D01*
X163940442Y-101975518D01*
G37*
G36*
X148700442Y-101975518D02*
G01*
X148766627Y-101982037D01*
X148936466Y-102033557D01*
X149092991Y-102117222D01*
X149128729Y-102146552D01*
X149230186Y-102229814D01*
X149313448Y-102331271D01*
X149342778Y-102367009D01*
X149426443Y-102523534D01*
X149477963Y-102693373D01*
X149495359Y-102870000D01*
X149477963Y-103046627D01*
X149426443Y-103216466D01*
X149342778Y-103372991D01*
X149313448Y-103408729D01*
X149230186Y-103510186D01*
X149128729Y-103593448D01*
X149092991Y-103622778D01*
X148936466Y-103706443D01*
X148766627Y-103757963D01*
X148700443Y-103764481D01*
X148634260Y-103771000D01*
X148545740Y-103771000D01*
X148479557Y-103764481D01*
X148413373Y-103757963D01*
X148243534Y-103706443D01*
X148087009Y-103622778D01*
X148051271Y-103593448D01*
X147949814Y-103510186D01*
X147866552Y-103408729D01*
X147837222Y-103372991D01*
X147753557Y-103216466D01*
X147702037Y-103046627D01*
X147684641Y-102870000D01*
X147702037Y-102693373D01*
X147753557Y-102523534D01*
X147837222Y-102367009D01*
X147866552Y-102331271D01*
X147949814Y-102229814D01*
X148051271Y-102146552D01*
X148087009Y-102117222D01*
X148243534Y-102033557D01*
X148413373Y-101982037D01*
X148479558Y-101975518D01*
X148545740Y-101969000D01*
X148634260Y-101969000D01*
X148700442Y-101975518D01*
X148700442Y-101975518D01*
G37*
G36*
X164731000Y-101231000D02*
G01*
X162929000Y-101231000D01*
X162929000Y-99429000D01*
X164731000Y-99429000D01*
X164731000Y-101231000D01*
X164731000Y-101231000D01*
G37*
G36*
X149491000Y-101231000D02*
G01*
X147689000Y-101231000D01*
X147689000Y-99429000D01*
X149491000Y-99429000D01*
X149491000Y-101231000D01*
X149491000Y-101231000D01*
G37*
M02*
