G04 #@! TF.GenerationSoftware,KiCad,Pcbnew,(5.1.4-0-10_14)*
G04 #@! TF.CreationDate,2022-08-18T21:45:17+09:00*
G04 #@! TF.ProjectId,NX13,4e583133-2e6b-4696-9361-645f70636258,rev?*
G04 #@! TF.SameCoordinates,Original*
G04 #@! TF.FileFunction,Copper,L2,Bot*
G04 #@! TF.FilePolarity,Positive*
%FSLAX46Y46*%
G04 Gerber Fmt 4.6, Leading zero omitted, Abs format (unit mm)*
G04 Created by KiCad (PCBNEW (5.1.4-0-10_14)) date 2022-08-18 21:45:17*
%MOMM*%
%LPD*%
G04 APERTURE LIST*
%ADD10O,1.700000X1.700000*%
%ADD11R,1.700000X1.700000*%
%ADD12O,1.700000X2.000000*%
%ADD13C,0.100000*%
%ADD14C,1.700000*%
%ADD15C,0.600000*%
%ADD16C,0.254000*%
G04 APERTURE END LIST*
D10*
X162560000Y-120650000D03*
X162560000Y-118110000D03*
D11*
X162560000Y-115570000D03*
D10*
X160020000Y-120650000D03*
X160020000Y-118110000D03*
D11*
X160020000Y-115570000D03*
D10*
X157480000Y-120650000D03*
X157480000Y-118110000D03*
D11*
X157480000Y-115570000D03*
D10*
X154940000Y-120650000D03*
X154940000Y-118110000D03*
D11*
X154940000Y-115570000D03*
D10*
X152400000Y-120650000D03*
X152400000Y-118110000D03*
D11*
X152400000Y-115570000D03*
D10*
X149860000Y-120650000D03*
X149860000Y-118110000D03*
D11*
X149860000Y-115570000D03*
D10*
X163830000Y-107950000D03*
X163830000Y-105410000D03*
X163830000Y-102870000D03*
D11*
X163830000Y-100330000D03*
D10*
X148590000Y-110490000D03*
X148590000Y-107950000D03*
X148590000Y-105410000D03*
X148590000Y-102870000D03*
D11*
X148590000Y-100330000D03*
D12*
X156250000Y-102870000D03*
D13*
G36*
X159374504Y-101871204D02*
G01*
X159398773Y-101874804D01*
X159422571Y-101880765D01*
X159445671Y-101889030D01*
X159467849Y-101899520D01*
X159488893Y-101912133D01*
X159508598Y-101926747D01*
X159526777Y-101943223D01*
X159543253Y-101961402D01*
X159557867Y-101981107D01*
X159570480Y-102002151D01*
X159580970Y-102024329D01*
X159589235Y-102047429D01*
X159595196Y-102071227D01*
X159598796Y-102095496D01*
X159600000Y-102120000D01*
X159600000Y-103620000D01*
X159598796Y-103644504D01*
X159595196Y-103668773D01*
X159589235Y-103692571D01*
X159580970Y-103715671D01*
X159570480Y-103737849D01*
X159557867Y-103758893D01*
X159543253Y-103778598D01*
X159526777Y-103796777D01*
X159508598Y-103813253D01*
X159488893Y-103827867D01*
X159467849Y-103840480D01*
X159445671Y-103850970D01*
X159422571Y-103859235D01*
X159398773Y-103865196D01*
X159374504Y-103868796D01*
X159350000Y-103870000D01*
X158150000Y-103870000D01*
X158125496Y-103868796D01*
X158101227Y-103865196D01*
X158077429Y-103859235D01*
X158054329Y-103850970D01*
X158032151Y-103840480D01*
X158011107Y-103827867D01*
X157991402Y-103813253D01*
X157973223Y-103796777D01*
X157956747Y-103778598D01*
X157942133Y-103758893D01*
X157929520Y-103737849D01*
X157919030Y-103715671D01*
X157910765Y-103692571D01*
X157904804Y-103668773D01*
X157901204Y-103644504D01*
X157900000Y-103620000D01*
X157900000Y-102120000D01*
X157901204Y-102095496D01*
X157904804Y-102071227D01*
X157910765Y-102047429D01*
X157919030Y-102024329D01*
X157929520Y-102002151D01*
X157942133Y-101981107D01*
X157956747Y-101961402D01*
X157973223Y-101943223D01*
X157991402Y-101926747D01*
X158011107Y-101912133D01*
X158032151Y-101899520D01*
X158054329Y-101889030D01*
X158077429Y-101880765D01*
X158101227Y-101874804D01*
X158125496Y-101871204D01*
X158150000Y-101870000D01*
X159350000Y-101870000D01*
X159374504Y-101871204D01*
X159374504Y-101871204D01*
G37*
D14*
X158750000Y-102870000D03*
D15*
X162560000Y-120650000D02*
X149860000Y-120650000D01*
X149860000Y-120650000D02*
X149860000Y-120108002D01*
X158710000Y-104470000D02*
X158750000Y-104510000D01*
X158750000Y-104510000D02*
X158750000Y-108585000D01*
X158710000Y-102870000D02*
X158710000Y-104470000D01*
X149860000Y-118110000D02*
X162560000Y-118110000D01*
X163910001Y-113745001D02*
X158750000Y-108585000D01*
X163910001Y-116759999D02*
X163910001Y-113745001D01*
X162560000Y-118110000D02*
X163910001Y-116759999D01*
X158710000Y-102870000D02*
X163830000Y-102870000D01*
D16*
G36*
X162345000Y-100044250D02*
G01*
X162503750Y-100203000D01*
X163703000Y-100203000D01*
X163703000Y-100183000D01*
X163957000Y-100183000D01*
X163957000Y-100203000D01*
X163977000Y-100203000D01*
X163977000Y-100457000D01*
X163957000Y-100457000D01*
X163957000Y-100477000D01*
X163703000Y-100477000D01*
X163703000Y-100457000D01*
X162503750Y-100457000D01*
X162345000Y-100615750D01*
X162341928Y-101180000D01*
X162354188Y-101304482D01*
X162390498Y-101424180D01*
X162449463Y-101534494D01*
X162528815Y-101631185D01*
X162625506Y-101710537D01*
X162735820Y-101769502D01*
X162804687Y-101790393D01*
X162774866Y-101814866D01*
X162676275Y-101935000D01*
X160217445Y-101935000D01*
X160170472Y-101780150D01*
X160088405Y-101626614D01*
X159977962Y-101492038D01*
X159843386Y-101381595D01*
X159689850Y-101299528D01*
X159523254Y-101248992D01*
X159350000Y-101231928D01*
X158150000Y-101231928D01*
X157976746Y-101248992D01*
X157810150Y-101299528D01*
X157656614Y-101381595D01*
X157522038Y-101492038D01*
X157411595Y-101626614D01*
X157357086Y-101728593D01*
X157356802Y-101728205D01*
X157142046Y-101531336D01*
X156893009Y-101380146D01*
X156619261Y-101280446D01*
X156606890Y-101278524D01*
X156377000Y-101399845D01*
X156377000Y-102743000D01*
X156397000Y-102743000D01*
X156397000Y-102997000D01*
X156377000Y-102997000D01*
X156377000Y-104340155D01*
X156606890Y-104461476D01*
X156619261Y-104459554D01*
X156893009Y-104359854D01*
X157142046Y-104208664D01*
X157356802Y-104011795D01*
X157357086Y-104011407D01*
X157411595Y-104113386D01*
X157522038Y-104247962D01*
X157656614Y-104358405D01*
X157775001Y-104421684D01*
X157775001Y-104424059D01*
X157770476Y-104470000D01*
X157788529Y-104653291D01*
X157815000Y-104740554D01*
X157815001Y-108539058D01*
X157810476Y-108585000D01*
X157828529Y-108768291D01*
X157831782Y-108779014D01*
X157881994Y-108944540D01*
X157968815Y-109106972D01*
X158085657Y-109249344D01*
X158121336Y-109278625D01*
X162924638Y-114081928D01*
X161710000Y-114081928D01*
X161585518Y-114094188D01*
X161465820Y-114130498D01*
X161355506Y-114189463D01*
X161290000Y-114243222D01*
X161224494Y-114189463D01*
X161114180Y-114130498D01*
X160994482Y-114094188D01*
X160870000Y-114081928D01*
X159170000Y-114081928D01*
X159045518Y-114094188D01*
X158925820Y-114130498D01*
X158815506Y-114189463D01*
X158750000Y-114243222D01*
X158684494Y-114189463D01*
X158574180Y-114130498D01*
X158454482Y-114094188D01*
X158330000Y-114081928D01*
X156630000Y-114081928D01*
X156505518Y-114094188D01*
X156385820Y-114130498D01*
X156275506Y-114189463D01*
X156210000Y-114243222D01*
X156144494Y-114189463D01*
X156034180Y-114130498D01*
X155914482Y-114094188D01*
X155790000Y-114081928D01*
X154090000Y-114081928D01*
X153965518Y-114094188D01*
X153845820Y-114130498D01*
X153735506Y-114189463D01*
X153670000Y-114243222D01*
X153604494Y-114189463D01*
X153494180Y-114130498D01*
X153374482Y-114094188D01*
X153250000Y-114081928D01*
X151550000Y-114081928D01*
X151425518Y-114094188D01*
X151305820Y-114130498D01*
X151195506Y-114189463D01*
X151130000Y-114243222D01*
X151064494Y-114189463D01*
X150954180Y-114130498D01*
X150834482Y-114094188D01*
X150710000Y-114081928D01*
X149010000Y-114081928D01*
X148885518Y-114094188D01*
X148765820Y-114130498D01*
X148655506Y-114189463D01*
X148558815Y-114268815D01*
X148479463Y-114365506D01*
X148420498Y-114475820D01*
X148384188Y-114595518D01*
X148371928Y-114720000D01*
X148371928Y-116420000D01*
X148384188Y-116544482D01*
X148420498Y-116664180D01*
X148479463Y-116774494D01*
X148558815Y-116871185D01*
X148655506Y-116950537D01*
X148765820Y-117009502D01*
X148834687Y-117030393D01*
X148804866Y-117054866D01*
X148619294Y-117280986D01*
X148481401Y-117538966D01*
X148396487Y-117818889D01*
X148367815Y-118110000D01*
X148396487Y-118401111D01*
X148481401Y-118681034D01*
X148619294Y-118939014D01*
X148804866Y-119165134D01*
X149030986Y-119350706D01*
X149095523Y-119385201D01*
X148978645Y-119454822D01*
X148762412Y-119649731D01*
X148588359Y-119883080D01*
X148463175Y-120145901D01*
X148418524Y-120293110D01*
X148539845Y-120523000D01*
X149733000Y-120523000D01*
X149733000Y-120503000D01*
X149987000Y-120503000D01*
X149987000Y-120523000D01*
X152273000Y-120523000D01*
X152273000Y-120503000D01*
X152527000Y-120503000D01*
X152527000Y-120523000D01*
X154813000Y-120523000D01*
X154813000Y-120503000D01*
X155067000Y-120503000D01*
X155067000Y-120523000D01*
X157353000Y-120523000D01*
X157353000Y-120503000D01*
X157607000Y-120503000D01*
X157607000Y-120523000D01*
X159893000Y-120523000D01*
X159893000Y-120503000D01*
X160147000Y-120503000D01*
X160147000Y-120523000D01*
X162433000Y-120523000D01*
X162433000Y-120503000D01*
X162687000Y-120503000D01*
X162687000Y-120523000D01*
X163880155Y-120523000D01*
X164001476Y-120293110D01*
X163956825Y-120145901D01*
X163831641Y-119883080D01*
X163657588Y-119649731D01*
X163441355Y-119454822D01*
X163324477Y-119385201D01*
X163389014Y-119350706D01*
X163615134Y-119165134D01*
X163800706Y-118939014D01*
X163938599Y-118681034D01*
X164023513Y-118401111D01*
X164052185Y-118110000D01*
X164036952Y-117955337D01*
X164365000Y-117627289D01*
X164365000Y-121185000D01*
X163942107Y-121185000D01*
X163956825Y-121154099D01*
X164001476Y-121006890D01*
X163880155Y-120777000D01*
X162687000Y-120777000D01*
X162687000Y-120797000D01*
X162433000Y-120797000D01*
X162433000Y-120777000D01*
X160147000Y-120777000D01*
X160147000Y-120797000D01*
X159893000Y-120797000D01*
X159893000Y-120777000D01*
X157607000Y-120777000D01*
X157607000Y-120797000D01*
X157353000Y-120797000D01*
X157353000Y-120777000D01*
X155067000Y-120777000D01*
X155067000Y-120797000D01*
X154813000Y-120797000D01*
X154813000Y-120777000D01*
X152527000Y-120777000D01*
X152527000Y-120797000D01*
X152273000Y-120797000D01*
X152273000Y-120777000D01*
X149987000Y-120777000D01*
X149987000Y-120797000D01*
X149733000Y-120797000D01*
X149733000Y-120777000D01*
X148539845Y-120777000D01*
X148418524Y-121006890D01*
X148463175Y-121154099D01*
X148477893Y-121185000D01*
X148055000Y-121185000D01*
X148055000Y-111879530D01*
X148298889Y-111953513D01*
X148517050Y-111975000D01*
X148662950Y-111975000D01*
X148881111Y-111953513D01*
X149161034Y-111868599D01*
X149419014Y-111730706D01*
X149645134Y-111545134D01*
X149830706Y-111319014D01*
X149968599Y-111061034D01*
X150053513Y-110781111D01*
X150082185Y-110490000D01*
X150064278Y-110308178D01*
X154363932Y-110308178D01*
X154363932Y-110671822D01*
X154434876Y-111028478D01*
X154574036Y-111364441D01*
X154776066Y-111666800D01*
X155033200Y-111923934D01*
X155335559Y-112125964D01*
X155671522Y-112265124D01*
X156028178Y-112336068D01*
X156391822Y-112336068D01*
X156748478Y-112265124D01*
X157084441Y-112125964D01*
X157386800Y-111923934D01*
X157643934Y-111666800D01*
X157845964Y-111364441D01*
X157985124Y-111028478D01*
X158056068Y-110671822D01*
X158056068Y-110308178D01*
X157985124Y-109951522D01*
X157845964Y-109615559D01*
X157643934Y-109313200D01*
X157386800Y-109056066D01*
X157084441Y-108854036D01*
X156748478Y-108714876D01*
X156391822Y-108643932D01*
X156028178Y-108643932D01*
X155671522Y-108714876D01*
X155335559Y-108854036D01*
X155033200Y-109056066D01*
X154776066Y-109313200D01*
X154574036Y-109615559D01*
X154434876Y-109951522D01*
X154363932Y-110308178D01*
X150064278Y-110308178D01*
X150053513Y-110198889D01*
X149968599Y-109918966D01*
X149830706Y-109660986D01*
X149645134Y-109434866D01*
X149419014Y-109249294D01*
X149364209Y-109220000D01*
X149419014Y-109190706D01*
X149645134Y-109005134D01*
X149830706Y-108779014D01*
X149968599Y-108521034D01*
X150053513Y-108241111D01*
X150082185Y-107950000D01*
X150053513Y-107658889D01*
X149968599Y-107378966D01*
X149830706Y-107120986D01*
X149645134Y-106894866D01*
X149419014Y-106709294D01*
X149364209Y-106680000D01*
X149419014Y-106650706D01*
X149645134Y-106465134D01*
X149830706Y-106239014D01*
X149968599Y-105981034D01*
X150053513Y-105701111D01*
X150082185Y-105410000D01*
X150053513Y-105118889D01*
X149968599Y-104838966D01*
X149830706Y-104580986D01*
X149645134Y-104354866D01*
X149419014Y-104169294D01*
X149364209Y-104140000D01*
X149419014Y-104110706D01*
X149645134Y-103925134D01*
X149830706Y-103699014D01*
X149968599Y-103441034D01*
X150032693Y-103229742D01*
X154778715Y-103229742D01*
X154847904Y-103512745D01*
X154970975Y-103776812D01*
X155143198Y-104011795D01*
X155357954Y-104208664D01*
X155606991Y-104359854D01*
X155880739Y-104459554D01*
X155893110Y-104461476D01*
X156123000Y-104340155D01*
X156123000Y-102997000D01*
X154922768Y-102997000D01*
X154778715Y-103229742D01*
X150032693Y-103229742D01*
X150053513Y-103161111D01*
X150082185Y-102870000D01*
X150053513Y-102578889D01*
X150032694Y-102510258D01*
X154778715Y-102510258D01*
X154922768Y-102743000D01*
X156123000Y-102743000D01*
X156123000Y-101399845D01*
X155893110Y-101278524D01*
X155880739Y-101280446D01*
X155606991Y-101380146D01*
X155357954Y-101531336D01*
X155143198Y-101728205D01*
X154970975Y-101963188D01*
X154847904Y-102227255D01*
X154778715Y-102510258D01*
X150032694Y-102510258D01*
X149968599Y-102298966D01*
X149830706Y-102040986D01*
X149645134Y-101814866D01*
X149615313Y-101790393D01*
X149684180Y-101769502D01*
X149794494Y-101710537D01*
X149891185Y-101631185D01*
X149970537Y-101534494D01*
X150029502Y-101424180D01*
X150065812Y-101304482D01*
X150078072Y-101180000D01*
X150078072Y-99795000D01*
X162343643Y-99795000D01*
X162345000Y-100044250D01*
X162345000Y-100044250D01*
G37*
X162345000Y-100044250D02*
X162503750Y-100203000D01*
X163703000Y-100203000D01*
X163703000Y-100183000D01*
X163957000Y-100183000D01*
X163957000Y-100203000D01*
X163977000Y-100203000D01*
X163977000Y-100457000D01*
X163957000Y-100457000D01*
X163957000Y-100477000D01*
X163703000Y-100477000D01*
X163703000Y-100457000D01*
X162503750Y-100457000D01*
X162345000Y-100615750D01*
X162341928Y-101180000D01*
X162354188Y-101304482D01*
X162390498Y-101424180D01*
X162449463Y-101534494D01*
X162528815Y-101631185D01*
X162625506Y-101710537D01*
X162735820Y-101769502D01*
X162804687Y-101790393D01*
X162774866Y-101814866D01*
X162676275Y-101935000D01*
X160217445Y-101935000D01*
X160170472Y-101780150D01*
X160088405Y-101626614D01*
X159977962Y-101492038D01*
X159843386Y-101381595D01*
X159689850Y-101299528D01*
X159523254Y-101248992D01*
X159350000Y-101231928D01*
X158150000Y-101231928D01*
X157976746Y-101248992D01*
X157810150Y-101299528D01*
X157656614Y-101381595D01*
X157522038Y-101492038D01*
X157411595Y-101626614D01*
X157357086Y-101728593D01*
X157356802Y-101728205D01*
X157142046Y-101531336D01*
X156893009Y-101380146D01*
X156619261Y-101280446D01*
X156606890Y-101278524D01*
X156377000Y-101399845D01*
X156377000Y-102743000D01*
X156397000Y-102743000D01*
X156397000Y-102997000D01*
X156377000Y-102997000D01*
X156377000Y-104340155D01*
X156606890Y-104461476D01*
X156619261Y-104459554D01*
X156893009Y-104359854D01*
X157142046Y-104208664D01*
X157356802Y-104011795D01*
X157357086Y-104011407D01*
X157411595Y-104113386D01*
X157522038Y-104247962D01*
X157656614Y-104358405D01*
X157775001Y-104421684D01*
X157775001Y-104424059D01*
X157770476Y-104470000D01*
X157788529Y-104653291D01*
X157815000Y-104740554D01*
X157815001Y-108539058D01*
X157810476Y-108585000D01*
X157828529Y-108768291D01*
X157831782Y-108779014D01*
X157881994Y-108944540D01*
X157968815Y-109106972D01*
X158085657Y-109249344D01*
X158121336Y-109278625D01*
X162924638Y-114081928D01*
X161710000Y-114081928D01*
X161585518Y-114094188D01*
X161465820Y-114130498D01*
X161355506Y-114189463D01*
X161290000Y-114243222D01*
X161224494Y-114189463D01*
X161114180Y-114130498D01*
X160994482Y-114094188D01*
X160870000Y-114081928D01*
X159170000Y-114081928D01*
X159045518Y-114094188D01*
X158925820Y-114130498D01*
X158815506Y-114189463D01*
X158750000Y-114243222D01*
X158684494Y-114189463D01*
X158574180Y-114130498D01*
X158454482Y-114094188D01*
X158330000Y-114081928D01*
X156630000Y-114081928D01*
X156505518Y-114094188D01*
X156385820Y-114130498D01*
X156275506Y-114189463D01*
X156210000Y-114243222D01*
X156144494Y-114189463D01*
X156034180Y-114130498D01*
X155914482Y-114094188D01*
X155790000Y-114081928D01*
X154090000Y-114081928D01*
X153965518Y-114094188D01*
X153845820Y-114130498D01*
X153735506Y-114189463D01*
X153670000Y-114243222D01*
X153604494Y-114189463D01*
X153494180Y-114130498D01*
X153374482Y-114094188D01*
X153250000Y-114081928D01*
X151550000Y-114081928D01*
X151425518Y-114094188D01*
X151305820Y-114130498D01*
X151195506Y-114189463D01*
X151130000Y-114243222D01*
X151064494Y-114189463D01*
X150954180Y-114130498D01*
X150834482Y-114094188D01*
X150710000Y-114081928D01*
X149010000Y-114081928D01*
X148885518Y-114094188D01*
X148765820Y-114130498D01*
X148655506Y-114189463D01*
X148558815Y-114268815D01*
X148479463Y-114365506D01*
X148420498Y-114475820D01*
X148384188Y-114595518D01*
X148371928Y-114720000D01*
X148371928Y-116420000D01*
X148384188Y-116544482D01*
X148420498Y-116664180D01*
X148479463Y-116774494D01*
X148558815Y-116871185D01*
X148655506Y-116950537D01*
X148765820Y-117009502D01*
X148834687Y-117030393D01*
X148804866Y-117054866D01*
X148619294Y-117280986D01*
X148481401Y-117538966D01*
X148396487Y-117818889D01*
X148367815Y-118110000D01*
X148396487Y-118401111D01*
X148481401Y-118681034D01*
X148619294Y-118939014D01*
X148804866Y-119165134D01*
X149030986Y-119350706D01*
X149095523Y-119385201D01*
X148978645Y-119454822D01*
X148762412Y-119649731D01*
X148588359Y-119883080D01*
X148463175Y-120145901D01*
X148418524Y-120293110D01*
X148539845Y-120523000D01*
X149733000Y-120523000D01*
X149733000Y-120503000D01*
X149987000Y-120503000D01*
X149987000Y-120523000D01*
X152273000Y-120523000D01*
X152273000Y-120503000D01*
X152527000Y-120503000D01*
X152527000Y-120523000D01*
X154813000Y-120523000D01*
X154813000Y-120503000D01*
X155067000Y-120503000D01*
X155067000Y-120523000D01*
X157353000Y-120523000D01*
X157353000Y-120503000D01*
X157607000Y-120503000D01*
X157607000Y-120523000D01*
X159893000Y-120523000D01*
X159893000Y-120503000D01*
X160147000Y-120503000D01*
X160147000Y-120523000D01*
X162433000Y-120523000D01*
X162433000Y-120503000D01*
X162687000Y-120503000D01*
X162687000Y-120523000D01*
X163880155Y-120523000D01*
X164001476Y-120293110D01*
X163956825Y-120145901D01*
X163831641Y-119883080D01*
X163657588Y-119649731D01*
X163441355Y-119454822D01*
X163324477Y-119385201D01*
X163389014Y-119350706D01*
X163615134Y-119165134D01*
X163800706Y-118939014D01*
X163938599Y-118681034D01*
X164023513Y-118401111D01*
X164052185Y-118110000D01*
X164036952Y-117955337D01*
X164365000Y-117627289D01*
X164365000Y-121185000D01*
X163942107Y-121185000D01*
X163956825Y-121154099D01*
X164001476Y-121006890D01*
X163880155Y-120777000D01*
X162687000Y-120777000D01*
X162687000Y-120797000D01*
X162433000Y-120797000D01*
X162433000Y-120777000D01*
X160147000Y-120777000D01*
X160147000Y-120797000D01*
X159893000Y-120797000D01*
X159893000Y-120777000D01*
X157607000Y-120777000D01*
X157607000Y-120797000D01*
X157353000Y-120797000D01*
X157353000Y-120777000D01*
X155067000Y-120777000D01*
X155067000Y-120797000D01*
X154813000Y-120797000D01*
X154813000Y-120777000D01*
X152527000Y-120777000D01*
X152527000Y-120797000D01*
X152273000Y-120797000D01*
X152273000Y-120777000D01*
X149987000Y-120777000D01*
X149987000Y-120797000D01*
X149733000Y-120797000D01*
X149733000Y-120777000D01*
X148539845Y-120777000D01*
X148418524Y-121006890D01*
X148463175Y-121154099D01*
X148477893Y-121185000D01*
X148055000Y-121185000D01*
X148055000Y-111879530D01*
X148298889Y-111953513D01*
X148517050Y-111975000D01*
X148662950Y-111975000D01*
X148881111Y-111953513D01*
X149161034Y-111868599D01*
X149419014Y-111730706D01*
X149645134Y-111545134D01*
X149830706Y-111319014D01*
X149968599Y-111061034D01*
X150053513Y-110781111D01*
X150082185Y-110490000D01*
X150064278Y-110308178D01*
X154363932Y-110308178D01*
X154363932Y-110671822D01*
X154434876Y-111028478D01*
X154574036Y-111364441D01*
X154776066Y-111666800D01*
X155033200Y-111923934D01*
X155335559Y-112125964D01*
X155671522Y-112265124D01*
X156028178Y-112336068D01*
X156391822Y-112336068D01*
X156748478Y-112265124D01*
X157084441Y-112125964D01*
X157386800Y-111923934D01*
X157643934Y-111666800D01*
X157845964Y-111364441D01*
X157985124Y-111028478D01*
X158056068Y-110671822D01*
X158056068Y-110308178D01*
X157985124Y-109951522D01*
X157845964Y-109615559D01*
X157643934Y-109313200D01*
X157386800Y-109056066D01*
X157084441Y-108854036D01*
X156748478Y-108714876D01*
X156391822Y-108643932D01*
X156028178Y-108643932D01*
X155671522Y-108714876D01*
X155335559Y-108854036D01*
X155033200Y-109056066D01*
X154776066Y-109313200D01*
X154574036Y-109615559D01*
X154434876Y-109951522D01*
X154363932Y-110308178D01*
X150064278Y-110308178D01*
X150053513Y-110198889D01*
X149968599Y-109918966D01*
X149830706Y-109660986D01*
X149645134Y-109434866D01*
X149419014Y-109249294D01*
X149364209Y-109220000D01*
X149419014Y-109190706D01*
X149645134Y-109005134D01*
X149830706Y-108779014D01*
X149968599Y-108521034D01*
X150053513Y-108241111D01*
X150082185Y-107950000D01*
X150053513Y-107658889D01*
X149968599Y-107378966D01*
X149830706Y-107120986D01*
X149645134Y-106894866D01*
X149419014Y-106709294D01*
X149364209Y-106680000D01*
X149419014Y-106650706D01*
X149645134Y-106465134D01*
X149830706Y-106239014D01*
X149968599Y-105981034D01*
X150053513Y-105701111D01*
X150082185Y-105410000D01*
X150053513Y-105118889D01*
X149968599Y-104838966D01*
X149830706Y-104580986D01*
X149645134Y-104354866D01*
X149419014Y-104169294D01*
X149364209Y-104140000D01*
X149419014Y-104110706D01*
X149645134Y-103925134D01*
X149830706Y-103699014D01*
X149968599Y-103441034D01*
X150032693Y-103229742D01*
X154778715Y-103229742D01*
X154847904Y-103512745D01*
X154970975Y-103776812D01*
X155143198Y-104011795D01*
X155357954Y-104208664D01*
X155606991Y-104359854D01*
X155880739Y-104459554D01*
X155893110Y-104461476D01*
X156123000Y-104340155D01*
X156123000Y-102997000D01*
X154922768Y-102997000D01*
X154778715Y-103229742D01*
X150032693Y-103229742D01*
X150053513Y-103161111D01*
X150082185Y-102870000D01*
X150053513Y-102578889D01*
X150032694Y-102510258D01*
X154778715Y-102510258D01*
X154922768Y-102743000D01*
X156123000Y-102743000D01*
X156123000Y-101399845D01*
X155893110Y-101278524D01*
X155880739Y-101280446D01*
X155606991Y-101380146D01*
X155357954Y-101531336D01*
X155143198Y-101728205D01*
X154970975Y-101963188D01*
X154847904Y-102227255D01*
X154778715Y-102510258D01*
X150032694Y-102510258D01*
X149968599Y-102298966D01*
X149830706Y-102040986D01*
X149645134Y-101814866D01*
X149615313Y-101790393D01*
X149684180Y-101769502D01*
X149794494Y-101710537D01*
X149891185Y-101631185D01*
X149970537Y-101534494D01*
X150029502Y-101424180D01*
X150065812Y-101304482D01*
X150078072Y-101180000D01*
X150078072Y-99795000D01*
X162343643Y-99795000D01*
X162345000Y-100044250D01*
M02*
