G04 #@! TF.GenerationSoftware,KiCad,Pcbnew,(5.1.4-0-10_14)*
G04 #@! TF.CreationDate,2022-08-18T21:45:17+09:00*
G04 #@! TF.ProjectId,NX13,4e583133-2e6b-4696-9361-645f70636258,rev?*
G04 #@! TF.SameCoordinates,Original*
G04 #@! TF.FileFunction,Legend,Top*
G04 #@! TF.FilePolarity,Positive*
%FSLAX46Y46*%
G04 Gerber Fmt 4.6, Leading zero omitted, Abs format (unit mm)*
G04 Created by KiCad (PCBNEW (5.1.4-0-10_14)) date 2022-08-18 21:45:17*
%MOMM*%
%LPD*%
G04 APERTURE LIST*
%ADD10C,0.120000*%
%ADD11C,0.150000*%
G04 APERTURE END LIST*
D10*
X162500000Y-99000000D02*
X163830000Y-99000000D01*
X162500000Y-100330000D02*
X162500000Y-99000000D01*
X162500000Y-101600000D02*
X165160000Y-101600000D01*
X165160000Y-101600000D02*
X165160000Y-109280000D01*
X162500000Y-101600000D02*
X162500000Y-109280000D01*
X162500000Y-109280000D02*
X165160000Y-109280000D01*
X147260000Y-99000000D02*
X148590000Y-99000000D01*
X147260000Y-100330000D02*
X147260000Y-99000000D01*
X147260000Y-101600000D02*
X149920000Y-101600000D01*
X149920000Y-101600000D02*
X149920000Y-111820000D01*
X147260000Y-101600000D02*
X147260000Y-111820000D01*
X147260000Y-111820000D02*
X149920000Y-111820000D01*
D11*
X163496666Y-109942380D02*
X163496666Y-110656666D01*
X163449047Y-110799523D01*
X163353809Y-110894761D01*
X163210952Y-110942380D01*
X163115714Y-110942380D01*
X163877619Y-109942380D02*
X164496666Y-109942380D01*
X164163333Y-110323333D01*
X164306190Y-110323333D01*
X164401428Y-110370952D01*
X164449047Y-110418571D01*
X164496666Y-110513809D01*
X164496666Y-110751904D01*
X164449047Y-110847142D01*
X164401428Y-110894761D01*
X164306190Y-110942380D01*
X164020476Y-110942380D01*
X163925238Y-110894761D01*
X163877619Y-110847142D01*
X150796666Y-104862380D02*
X150796666Y-105576666D01*
X150749047Y-105719523D01*
X150653809Y-105814761D01*
X150510952Y-105862380D01*
X150415714Y-105862380D01*
X151225238Y-104957619D02*
X151272857Y-104910000D01*
X151368095Y-104862380D01*
X151606190Y-104862380D01*
X151701428Y-104910000D01*
X151749047Y-104957619D01*
X151796666Y-105052857D01*
X151796666Y-105148095D01*
X151749047Y-105290952D01*
X151177619Y-105862380D01*
X151796666Y-105862380D01*
M02*
