M48
; DRILL file {KiCad (5.1.4-0-10_14)} date 2022 August 18, Thursday 21:45:24
; FORMAT={-:-/ absolute / metric / decimal}
; #@! TF.CreationDate,2022-08-18T21:45:24+09:00
; #@! TF.GenerationSoftware,Kicad,Pcbnew,(5.1.4-0-10_14)
FMAT,2
METRIC
T1C1.000
%
G90
G05
T1
X160.02Y-115.57
X160.02Y-118.11
X160.02Y-120.65
X154.94Y-115.57
X154.94Y-118.11
X154.94Y-120.65
X162.56Y-115.57
X162.56Y-118.11
X162.56Y-120.65
X152.4Y-115.57
X152.4Y-118.11
X152.4Y-120.65
X157.48Y-115.57
X157.48Y-118.11
X157.48Y-120.65
X148.59Y-100.33
X148.59Y-102.87
X148.59Y-105.41
X148.59Y-107.95
X148.59Y-110.49
X149.86Y-115.57
X149.86Y-118.11
X149.86Y-120.65
X156.25Y-102.87
X158.75Y-102.87
X163.83Y-100.33
X163.83Y-102.87
X163.83Y-105.41
X163.83Y-107.95
T0
M30
